/* XPM */
static char *_0da647fd16b4de9a76e265a4a9fa7f4oTMM9nWRANvGRfRO[] = {
/* columns rows colors chars-per-pixel */
"16 16 65 1 ",
"  c #060608",
". c #141013",
"X c #3B1725",
"o c #73172D",
"O c #B4202A",
"+ c #DF3E23",
"@ c #FA6A0A",
"# c #F9A31B",
"$ c #FFD541",
"% c #FFFC40",
"& c #D6F264",
"* c #9CDB43",
"= c #59C135",
"- c #14A02E",
"; c #1A7A3E",
": c #24523B",
"> c #122020",
", c #143464",
"< c #285CC4",
"1 c #249FDE",
"2 c #20D6C7",
"3 c #A6FCDB",
"4 c white",
"5 c #FEF3C0",
"6 c #FAD6B8",
"7 c #F5A097",
"8 c #E86A73",
"9 c #BC4A9B",
"0 c #793A80",
"q c #403353",
"w c #242234",
"e c #221C1A",
"r c #322B28",
"t c #71413B",
"y c #BB7547",
"u c #DBA463",
"i c #F4D29C",
"p c #DAE0EA",
"a c #B3B9D1",
"s c #8B93AF",
"d c #6D758D",
"f c #4A5462",
"g c #333941",
"h c #422433",
"j c #5B3138",
"k c #8E5252",
"l c #BA756A",
"z c #E9B5A3",
"x c #E3E6FF",
"c c #B9BFFB",
"v c #849BE4",
"b c #588DBE",
"n c #477D85",
"m c #23674E",
"M c #328464",
"N c #5DAF8D",
"B c #92DCBA",
"V c #CDF7E2",
"C c #E4D2AA",
"Z c #C7B08B",
"A c #A08662",
"S c #796755",
"D c #5A4E44",
"F c #423934",
"G c black",
/* pixels */
"wwqq000qqwwwwwq0",
"qwwwqqqwww000qqq",
"qqwwwwq0000q00qq",
"q0000qwqqqqqqqqq",
"00qqwwwwwwwwwq00",
"qwwwwwwqqqqwwwqq",
"wwwqq00000qqwwww",
"q00000qqqq00qqqw",
"00qqqqqwwwqqqq00",
"q0000qwwwwwwq00q",
"wqqqqqwqqqqqqqww",
"wwwwwwww00000qqq",
"q0000qq00qqq00qq",
"qqqqqqqqqwwwqqqq",
"wwwwwq00wwwwwwww",
"qwwwwwqqqqwwwqqq"
};
