/* XPM */
static char * fondo_xpm[] = {
"64 64 3 1",
" 	c #48495D",
".	c #605879",
"+	c #965EA3",
"        ........++++++++++++........                    ....++++",
"        ........++++++++++++........                    ....++++",
"        ........++++++++++++........                    ....++++",
"        ........++++++++++++........                    ....++++",
"....            ............            ++++++++++++............",
"....            ............            ++++++++++++............",
"....            ............            ++++++++++++............",
"....            ............            ++++++++++++............",
"........                ....++++++++++++++++....++++++++........",
"........                ....++++++++++++++++....++++++++........",
"........                ....++++++++++++++++....++++++++........",
"........                ....++++++++++++++++....++++++++........",
"....++++++++++++++++....    ....................................",
"....++++++++++++++++....    ....................................",
"....++++++++++++++++....    ....................................",
"....++++++++++++++++....    ....................................",
"++++++++........                                    ....++++++++",
"++++++++........                                    ....++++++++",
"++++++++........                                    ....++++++++",
"++++++++........                                    ....++++++++",
"....                        ................            ........",
"....                        ................            ........",
"....                        ................            ........",
"....                        ................            ........",
"            ........++++++++++++++++++++........                ",
"            ........++++++++++++++++++++........                ",
"            ........++++++++++++++++++++........                ",
"            ........++++++++++++++++++++........                ",
"....++++++++++++++++++++................++++++++............    ",
"....++++++++++++++++++++................++++++++............    ",
"....++++++++++++++++++++................++++++++............    ",
"....++++++++++++++++++++................++++++++............    ",
"++++++++....................            ................++++++++",
"++++++++....................            ................++++++++",
"++++++++....................            ................++++++++",
"++++++++....................            ................++++++++",
"....++++++++++++++++....                        ....++++++++....",
"....++++++++++++++++....                        ....++++++++....",
"....++++++++++++++++....                        ....++++++++....",
"....++++++++++++++++....                        ....++++++++....",
"    ....................    ............................        ",
"    ....................    ............................        ",
"    ....................    ............................        ",
"    ....................    ............................        ",
"                                ++++++++++++++++++++............",
"                                ++++++++++++++++++++............",
"                                ++++++++++++++++++++............",
"                                ++++++++++++++++++++............",
"....++++++++++++++++........++++++++............++++++++........",
"....++++++++++++++++........++++++++............++++++++........",
"....++++++++++++++++........++++++++............++++++++........",
"....++++++++++++++++........++++++++............++++++++........",
"....................................            ................",
"....................................            ................",
"....................................            ................",
"....................................            ................",
"                    ....++++++++                                ",
"                    ....++++++++                                ",
"                    ....++++++++                                ",
"                    ....++++++++                                ",
"....                    ................            ............",
"....                    ................            ............",
"....                    ................            ............",
"....                    ................            ............"};
