/* XPM */
static char * knight_xpm[] = {
"64 64 10 1",
" 	c #141013",
".	c #605879",
"+	c #48495D",
"@	c #965EA3",
"#	c #B4202A",
"$	c #DAE0EA",
"%	c #796755",
"&	c #C7B08B",
"*	c #1A7A3E",
"=	c #F9A31B",
"                                  ..++++++++++++++++++++....@@@@",
"                                  ..++++++++++++++++++++....@@@@",
"                                  ..++++++++++++++++++++....@@@@",
"                                  ..++++++++++++++++++++....@@@@",
"     #############################     +@@@@@@@@@@@@............",
"     #############################     +@@@@@@@@@@@@............",
"     #############################     +@@@@@@@@@@@@............",
"     #############################     +@@@@@@@@@@@@............",
"                    ##########                             .....",
"                    ##########                             .....",
"                    ##########                             .....",
"                    ##########                             .....",
"....@@@@@@     $$$$$$$$$$$$$$$%%%%%%%%%%%%%%%%%%%%%%%%     .....",
"....@@@@@@     $$$$$$$$$$$$$$$%%%%%%%%%%%%%%%%%%%%%%%%     .....",
"....@@@@@@     $$$$$$$$$$$$$$$%%%%%%%%%%%%%%%%%%%%%%%%     .....",
"....@@@@@@     $$$$$$$$$$$$$$$%%%%%%%%%%%%%%%%%%%%%%%%     .....",
"@@@@@@@@..     $$$$$                                            ",
"@@@@@@@@..     $$$$$                                            ",
"@@@@@@@@..     $$$$$                                            ",
"@@@@@@@@..     $$$$$                                            ",
"....++++++     %%%%%     $$$$$$$$$$$$$$&&&&&&&&&&&&&&&&&&&&     ",
"....++++++     %%%%%     $$$$$$$$$$$$$$&&&&&&&&&&&&&&&&&&&&     ",
"....++++++     %%%%%     $$$$$$$$$$$$$$&&&&&&&&&&&&&&&&&&&&     ",
"....++++++     %%%%%     $$$$$$$$$$$$$$&&&&&&&&&&&&&&&&&&&&     ",
"++++++++++     %%%%%     $$$$$    &&&&&     &&&&&     &&&&&     ",
"++++++++++     %%%%%     $$$$$    &&&&&     &&&&&     &&&&&     ",
"++++++++++     %%%%%     $$$$$    &&&&&     &&&&&     &&&&&     ",
"++++++++++     %%%%%     $$$$$    &&&&&     &&&&&     &&&&&     ",
"....@@@@@@     %%%%%     &&&&&    &&&&&     &&&&&     &&&&&     ",
"....@@@@@@     %%%%%     &&&&&    &&&&&     &&&&&     &&&&&     ",
"....@@@@@@     %%%%%     &&&&&    &&&&&     &&&&&     &&&&&     ",
"....@@@@@@     %%%%%     &&&&&    &&&&&     &&&&&     &&&&&     ",
"@@@@@@@@..     %%%%%     &&&&&    &&&&&     &&&&&     &&&&&     ",
"@@@@@@@@..     %%%%%     &&&&&    &&&&&     &&&&&     &&&&&     ",
"@@@@@@@@..     %%%%%     &&&&&    &&&&&     &&&&&     &&&&&     ",
"@@@@@@@@..     %%%%%     &&&&&    &&&&&     &&&&&     &&&&&     ",
"....@@@@@@     %%%%%     &&&&&&&&&&&&&&&&&&&&&&&&&&&&&&&&&&     ",
"....@@@@@@     %%%%%     &&&&&&&&&&&&&&&&&&&&&&&&&&&&&&&&&&     ",
"....@@@@@@     %%%%%     &&&&&&&&&&&&&&&&&&&&&&&&&&&&&&&&&&     ",
"....@@@@@@     %%%%%     &&&&&&&&&&&&&&&&&&&&&&&&&&&&&&&&&&     ",
"++++.                                                           ",
"++++.                                                           ",
"++++.                                                           ",
"++++.                                                           ",
"+++++     ***************=============================     .....",
"+++++     ***************=============================     .....",
"+++++     ***************=============================     .....",
"+++++     ***************=============================     .....",
"          ***************=====                             .....",
"          ***************=====                             .....",
"          ***************=====                             .....",
"          ***************=====                             .....",
"     ********************=====    %%%%%%%%%%%%%%%%%%%%     .....",
"     ********************=====    %%%%%%%%%%%%%%%%%%%%     .....",
"     ********************=====    %%%%%%%%%%%%%%%%%%%%     .....",
"     ********************=====    %%%%%%%%%%%%%%%%%%%%     .....",
"     =========================    %%%%%%%%%%%%%%%%%%%%     +++++",
"     =========================    %%%%%%%%%%%%%%%%%%%%     +++++",
"     =========================    %%%%%%%%%%%%%%%%%%%%     +++++",
"     =========================    %%%%%%%%%%%%%%%%%%%%     +++++",
"                                                           .....",
"                                                           .....",
"                                                           .....",
"                                                           ....."};
