/* XPM */
static char *f0a9152133e548a2deba08f3669bd3c7MoyebQrzhOIJGke4[] = {
/* columns rows colors chars-per-pixel */
"64 64 3 1 ",
"  c #242234",
". c #403353",
"X c #793A80",
/* pixels */
"XXXXXXXXXXXX    XXXXXXXXXXXXXXXXXXXXXXXXXXXX    XXXXXXXXXXXXXXXX",
"XXXXXXXXXXXX    XXXXXXXXXXXXXXXXXXXXXXXXXXXX    XXXXXXXXXXXXXXXX",
"XXXXXXXXXXXX    XXXXXXXXXXXXXXXXXXXXXXXXXXXX    XXXXXXXXXXXXXXXX",
"XXXXXXXXXXXX    XXXXXXXXXXXXXXXXXXXXXXXXXXXX    XXXXXXXXXXXXXXXX",
"........XXXX    ........................XXXX    ................",
"........XXXX    ........................XXXX    ................",
"........XXXX    ........................XXXX    ................",
"........XXXX    ........................XXXX    ................",
"........XXXX    ........................XXXX    ................",
"........XXXX    ........................XXXX    ................",
"........XXXX    ........................XXXX    ................",
"........XXXX    ........................XXXX    ................",
"                                                                ",
"                                                                ",
"                                                                ",
"                                                                ",
"XXXXXXXXXXXXXXXXXXXXXXXX    XXXXXXXXXXXXXXXXXXXXXXXXXXXX    XXXX",
"XXXXXXXXXXXXXXXXXXXXXXXX    XXXXXXXXXXXXXXXXXXXXXXXXXXXX    XXXX",
"XXXXXXXXXXXXXXXXXXXXXXXX    XXXXXXXXXXXXXXXXXXXXXXXXXXXX    XXXX",
"XXXXXXXXXXXXXXXXXXXXXXXX    XXXXXXXXXXXXXXXXXXXXXXXXXXXX    XXXX",
"....................XXXX    ........................XXXX    ....",
"....................XXXX    ........................XXXX    ....",
"....................XXXX    ........................XXXX    ....",
"....................XXXX    ........................XXXX    ....",
"....................XXXX    ........................XXXX    ....",
"....................XXXX    ........................XXXX    ....",
"....................XXXX    ........................XXXX    ....",
"....................XXXX    ........................XXXX    ....",
"                                                                ",
"                                                                ",
"                                                                ",
"                                                                ",
"XXXXXXXXXXXX    XXXXXXXXXXXXXXXXXXXXXXXXXXXX    XXXXXXXXXXXXXXXX",
"XXXXXXXXXXXX    XXXXXXXXXXXXXXXXXXXXXXXXXXXX    XXXXXXXXXXXXXXXX",
"XXXXXXXXXXXX    XXXXXXXXXXXXXXXXXXXXXXXXXXXX    XXXXXXXXXXXXXXXX",
"XXXXXXXXXXXX    XXXXXXXXXXXXXXXXXXXXXXXXXXXX    XXXXXXXXXXXXXXXX",
"........XXXX    ........................XXXX    ................",
"........XXXX    ........................XXXX    ................",
"........XXXX    ........................XXXX    ................",
"........XXXX    ........................XXXX    ................",
"........XXXX    ........................XXXX    ................",
"........XXXX    ........................XXXX    ................",
"........XXXX    ........................XXXX    ................",
"........XXXX    ........................XXXX    ................",
"                                                                ",
"                                                                ",
"                                                                ",
"                                                                ",
"XXXXXXXXXXXXXXXXXXXXXXXXXXXX    XXXXXXXXXXXXXXXXXXXXXXXXXXXX    ",
"XXXXXXXXXXXXXXXXXXXXXXXXXXXX    XXXXXXXXXXXXXXXXXXXXXXXXXXXX    ",
"XXXXXXXXXXXXXXXXXXXXXXXXXXXX    XXXXXXXXXXXXXXXXXXXXXXXXXXXX    ",
"XXXXXXXXXXXXXXXXXXXXXXXXXXXX    XXXXXXXXXXXXXXXXXXXXXXXXXXXX    ",
"........................XXXX    ........................XXXX    ",
"........................XXXX    ........................XXXX    ",
"........................XXXX    ........................XXXX    ",
"........................XXXX    ........................XXXX    ",
"........................XXXX    ........................XXXX    ",
"........................XXXX    ........................XXXX    ",
"........................XXXX    ........................XXXX    ",
"........................XXXX    ........................XXXX    ",
"                                                                ",
"                                                                ",
"                                                                ",
"                                                                "
};
