/* XPM */
static char * recolectable_xpm[] = {
"64 64 6 1",
" 	c #48495D",
".	c #605879",
"+	c #965EA3",
"@	c #3B1725",
"#	c #73172D",
"$	c #B4202A",
"        ........++++++@@@@@@@@@@@@@@@@@@@@              ....++++",
"        ........++++++@@@@@@@@@@@@@@@@@@@@              ....++++",
"        ........++++++@@@@@@@@@@@@@@@@@@@@              ....++++",
"        ........++++++@@@@@@@@@@@@@@@@@@@@              ....++++",
"....          @@@@@@@@########$$$$$$$$$$$$@@@@@@@@++............",
"....          @@@@@@@@########$$$$$$$$$$$$@@@@@@@@++............",
"....          @@@@@@@@########$$$$$$$$$$$$@@@@@@@@++............",
"....          @@@@@@@@########$$$$$$$$$$$$@@@@@@@@++............",
"........      @@@@@@@@########$$$$$$$$$$$$@@@@@@@@++++++........",
"........  @@@@############@@@@####@@@@$$$$$$$$$$$$@@@@++........",
"........  @@@@############@@@@####@@@@$$$$$$$$$$$$@@@@++........",
"........  @@@@############@@@@####@@@@$$$$$$$$$$$$@@@@++........",
"....++++++@@@@############@@@@####@@@@$$$$$$$$$$$$@@@@..........",
"....++@@@@########$$$$################$$$$$$$$$$$$$$$$@@@@......",
"....++@@@@########$$$$################$$$$$$$$$$$$$$$$@@@@......",
"....++@@@@########$$$$################$$$$$$$$$$$$$$$$@@@@......",
"++++++@@@@########$$$$################$$$$$$$$$$$$$$$$@@@@++++++",
"++++++@@@@########$$$$$$$$$$$$########$$$$$$$$$$$$$$$$@@@@++++++",
"++++++@@@@########$$$$$$$$$$$$########$$$$$$$$$$$$$$$$@@@@++++++",
"++++++@@@@########$$$$$$$$$$$$########$$$$$$$$$$$$$$$$@@@@++++++",
"....  @@@@########$$$$$$$$$$$$########$$$$$$$$$$$$$$$$@@@@......",
"..@@@@################$$$$$$$$$$$$$$$$####$$$$$$$$$$$$$$$$@@@@..",
"..@@@@################$$$$$$$$$$$$$$$$####$$$$$$$$$$$$$$$$@@@@..",
"..@@@@################$$$$$$$$$$$$$$$$####$$$$$$$$$$$$$$$$@@@@..",
"  @@@@################$$$$$$$$$$$$$$$$####$$$$$$$$$$$$$$$$@@@@  ",
"  @@@@################$$$$$$$$$$$$$$$$####$$$$$$$$$$$$$$$$@@@@  ",
"  @@@@####@@@@########$$$$$$$$@@@@$$$$$$$$$$$$$$$$@@@@$$$$@@@@  ",
"  @@@@####@@@@########$$$$$$$$@@@@$$$$$$$$$$$$$$$$@@@@$$$$@@@@  ",
"..@@@@####@@@@########$$$$$$$$@@@@$$$$$$$$$$$$$$$$@@@@$$$$@@@@  ",
"..@@@@####@@@@########$$$$$$$$@@@@$$$$$$$$$$$$$$$$@@@@$$$$@@@@  ",
"..@@@@########$$$$####$$$$@@@@####@@@@$$$$$$$$$$$$########@@@@  ",
"..@@@@########$$$$####$$$$@@@@####@@@@$$$$$$$$$$$$########@@@@  ",
"++@@@@########$$$$####$$$$@@@@####@@@@$$$$$$$$$$$$########@@@@++",
"++@@@@########$$$$####$$$$@@@@####@@@@$$$$$$$$$$$$########@@@@++",
"++@@@@$$$$@@@@$$$$$$$$$$$$$$$$@@@@$$$$####$$$$$$$$@@@@####@@@@++",
"++@@@@$$$$@@@@$$$$$$$$$$$$$$$$@@@@$$$$####$$$$$$$$@@@@####@@@@++",
"..@@@@$$$$@@@@$$$$$$$$$$$$$$$$@@@@$$$$####$$$$$$$$@@@@####@@@@..",
"..@@@@$$$$@@@@$$$$$$$$$$$$$$$$@@@@$$$$####$$$$$$$$@@@@####@@@@..",
"..@@@@$$$$####$$$$$$$$####$$$$############$$$$$$$$########@@@@..",
"..@@@@$$$$####$$$$$$$$####$$$$############$$$$$$$$########@@@@..",
"  @@@@$$$$####$$$$$$$$####$$$$############$$$$$$$$########@@@@  ",
"  @@@@$$$$####$$$$$$$$####$$$$############$$$$$$$$########@@@@  ",
"  @@@@$$$$####$$$$$$$$####$$$$############$$$$$$$$########@@@@  ",
"    ..@@@@$$$$$$$$$$$$################$$$$$$$$########@@@@      ",
"      @@@@$$$$$$$$$$$$################$$$$$$$$########@@@@......",
"      @@@@$$$$$$$$$$$$################$$$$$$$$########@@@@......",
"      @@@@$$$$$$$$$$$$################$$$$$$$$########@@@@......",
"      @@@@$$$$$$$$$$$$$$$$$$$$########$$$$############@@@@......",
"....++@@@@$$$$$$$$$$$$$$$$$$$$########$$$$############@@@@......",
"....++@@@@$$$$$$$$$$$$$$$$$$$$########$$$$############@@@@......",
"....++@@@@$$$$$$$$$$$$$$$$$$$$########$$$$############@@@@......",
"....++++++@@@@$$$$$$$$$$$$@@@@####@@@@############@@@@++........",
"..........@@@@$$$$$$$$$$$$@@@@####@@@@############@@@@..........",
"..........@@@@$$$$$$$$$$$$@@@@####@@@@############@@@@..........",
"..........@@@@$$$$$$$$$$$$@@@@####@@@@############@@@@..........",
"..............@@@@@@@@$$$$####$$$$########@@@@@@@@..............",
"              @@@@@@@@$$$$####$$$$########@@@@@@@@              ",
"              @@@@@@@@$$$$####$$$$########@@@@@@@@              ",
"              @@@@@@@@$$$$####$$$$########@@@@@@@@              ",
"              @@@@@@@@$$$$####$$$$########@@@@@@@@              ",
"....                  @@@@@@@@@@@@@@@@@@@@          ............",
"....                  @@@@@@@@@@@@@@@@@@@@          ............",
"....                  @@@@@@@@@@@@@@@@@@@@          ............",
"....                  @@@@@@@@@@@@@@@@@@@@          ............"};
