/* XPM */
static char *_08ff4b5fd47430998e52baba2126e42mck88BaomPb2eOGE[] = {
/* columns rows colors chars-per-pixel */
"64 64 4 1 ",
"  c #141013",
". c #242234",
"X c #403353",
"o c #793A80",
/* pixels */
"oooooooooooo....oooooooooooooooooooooooooooo....oooooooooooooooo",
"oooooooooooo....oooooooooooooooooooooooooooo....oooooooooooooooo",
"oooooooooooo....oooooooooooooooooooooooooooo....oooooooooooooooo",
"oooooooooooo....oooooooooooooooooooooooooooo....oooooooooooooooo",
"XXXXXXXXoooo....XXXXXXXXXXXXXXXXXXXXXXXXoooo....XXXXXXXXXXXXXXXX",
"XXXXXXXXoooo....XXXXXXXXXXXXXXXXXXXXXXXXoooo....XXXXXXXXXXXXXXXX",
"XXXXXXXXoooo....XXXXXXXXXXXXXXXXXXXXXXXXoooo....XXXXXXXXXXXXXXXX",
"XXXXXXXXoooo....XXXXXXXXXXXXXXXXXXXXXXXXoooo....XXXXXXXXXXXXXXXX",
"XXXXXXXXoooo....XXXXXXXXXXXXXXXXXXXXXXXXoooo....XXXXXXXXXXXXXXXX",
"XXXXXXXXoooo....XXXXXXXXXXXXXXXXXXXXXXXXoooo....XXXXXXXXXXXXXXXX",
"XXXXXXXXoooo....XXXXXXXXXXXXXXXXXXXXXXXXoooo....XXXXXXXXXXXXXXXX",
"XXXXXXXXoooo....XXXXXXXXXXXXXXXXXXXXXXXXoooo....XXXXXXXXXXXXXXXX",
"................................................................",
"................................................................",
"................................................................",
"................................................................",
"oooo....XXXXXXXXXXXXXXXXXXXXXXXXXXXXXXXXXXXXXXXXXXXXXXXX....oooo",
"oooo....XXXXXXXXXXXXXXXXXXXXXXXXXXXXXXXXXXXXXXXXXXXXXXXX....oooo",
"oooo....XXXXXXXXXXXXXXXXXXXXXXXXXXXXXXXXXXXXXXXXXXXXXXXX....oooo",
"oooo....XXXXXXXXXXXXXXXXXXXXXXXXXXXXXXXXXXXXXXXXXXXXXXXX....oooo",
"XXXX....XXXX    XXXXXXXXXXXX........XXXXXXXXXXXX    XXXX....XXXX",
"XXXX....XXXX    XXXXXXXXXXXX........XXXXXXXXXXXX    XXXX....XXXX",
"XXXX....XXXX    XXXXXXXXXXXX........XXXXXXXXXXXX    XXXX....XXXX",
"XXXX....XXXX    XXXXXXXXXXXX........XXXXXXXXXXXX    XXXX....XXXX",
"XXXX....XXXXXXXXXXXX........        ........XXXXXXXXXXXX....XXXX",
"XXXX....XXXXXXXXXXXX........        ........XXXXXXXXXXXX....XXXX",
"XXXX....XXXXXXXXXXXX........        ........XXXXXXXXXXXX....XXXX",
"XXXX....XXXXXXXXXXXX........        ........XXXXXXXXXXXX....XXXX",
"........XXXXXXXX....                        ....XXXXXXXX........",
"........XXXXXXXX....                        ....XXXXXXXX........",
"........XXXXXXXX....                        ....XXXXXXXX........",
"........XXXXXXXX....                        ....XXXXXXXX........",
"oooo....XXXXXXXX....                        ....XXXXXXXX....oooo",
"oooo....XXXXXXXX....                        ....XXXXXXXX....oooo",
"oooo....XXXXXXXX....                        ....XXXXXXXX....oooo",
"oooo....XXXXXXXX....                        ....XXXXXXXX....oooo",
"XXXX....XXXX....                                ....XXXX....XXXX",
"XXXX....XXXX....                                ....XXXX....XXXX",
"XXXX....XXXX....                                ....XXXX....XXXX",
"XXXX....XXXX....                                ....XXXX....XXXX",
"XXXX....XXXX....                                ....XXXX....XXXX",
"XXXX....XXXX....                                ....XXXX....XXXX",
"XXXX....XXXX....                                ....XXXX....XXXX",
"XXXX....XXXX....                                ....XXXX....XXXX",
"........XXXX....                                ....XXXX........",
"........XXXX....                                ....XXXX........",
"........XXXX....                                ....XXXX........",
"........XXXX....                                ....XXXX........",
"oooo....XXXX....                                ....XXXX........",
"oooo....XXXX....                                ....XXXX........",
"oooo....XXXX....                                ....XXXX........",
"oooo....XXXX....                                ....XXXX........",
"XXXX....XXXX....                                ....XXXX........",
"XXXX....XXXX....                                ....XXXX........",
"XXXX....XXXX....                                ....XXXX........",
"XXXX....XXXX....                                ....XXXX........",
"XXXX....XXXX....                                ....XXXX........",
"XXXX....XXXX....                                ....XXXX........",
"XXXX....XXXX....                                ....XXXX........",
"XXXX....XXXX....                                ....XXXX........",
"................................................................",
"................................................................",
"................................................................",
"................................................................"
};
